# xmcd
#
# Track frame offsets: 
#        150
#        13328
#        34633
#        57624
#        73376
#        103885
#        133929
#        156909
#        177280
#        192843
#
# Disc length: 2878 seconds
#
# Revision: 0
# Processed by: cddbd v1.5.2PL0 Copyright (c) Steve Scherf et al.
# Submitted via: ExactAudioCopy v0.99pb5
#
DISCID=990b3c0a
DTITLE=John Lee Hooker - Mr, Lucky
DYEAR=1991
DGENRE=R&B
TTITLE0=I Want To Hug You
TTITLE1=Mr, Lucky
TTITLE2=Backstabbers
TTITLE3=This Is Hip
TTITLE4=I Cover The Waterfront
TTITLE5=Highway 13
TTITLE6=Stripped Me Naked
TTITLE7=Susie
TTITLE8=Crawlin' Kingsnake
TTITLE9=Father Was A Jockey
EXTD=
EXTT0=
EXTT1=
EXTT2=
EXTT3=
EXTT4=
EXTT5=
EXTT6=
EXTT7=
EXTT8=
EXTT9=
PLAYORDER=
